<?xml version="1.0" encoding="UTF-8"?>
<svg xmlns="http://www.w3.org/2000/svg" xmlns:xlink="http://www.w3.org/1999/xlink" viewBox="0 0 268.55 453.32">
  <defs>
    <style>
      .cls-1, .cls-2, .cls-3, .cls-4, .cls-5, .cls-6 {
        stroke-miterlimit: 10;
        stroke-width: .5px;
      }

      .cls-1, .cls-2, .cls-4 {
        stroke: #1d1d1b;
      }

      .cls-1, .cls-3, .cls-5 {
        fill: none;
      }

      .cls-7, .cls-6 {
        fill: #fff;
      }

      .cls-8 {
        isolation: isolate;
      }

      .cls-2 {
        filter: url(#drop-shadow-1);
      }

      .cls-2, .cls-4, .cls-9 {
        fill: #1d1d1b;
      }

      .cls-10 {
        opacity: 0;
      }

      .cls-10, .cls-11 {
        mix-blend-mode: multiply;
      }

      .cls-3, .cls-6 {
        stroke: #fff;
      }

      .cls-4 {
        filter: url(#drop-shadow-2);
      }

      .cls-5 {
        stroke: #acffac;
      }

      .cls-6 {
        filter: url(#drop-shadow-3);
      }

      .cls-12 {
        fill: #acffac;
      }
    </style>
    <filter id="drop-shadow-1" filterUnits="userSpaceOnUse">
      <feOffset dx="4" dy="2"/>
      <feGaussianBlur result="blur" stdDeviation="0"/>
      <feFlood flood-color="#acffac" flood-opacity="1"/>
      <feComposite in2="blur" operator="in"/>
      <feComposite in="SourceGraphic"/>
    </filter>
    <filter id="drop-shadow-2" filterUnits="userSpaceOnUse">
      <feOffset dx="4" dy="2"/>
      <feGaussianBlur result="blur-2" stdDeviation="0"/>
      <feFlood flood-color="#acffac" flood-opacity="1"/>
      <feComposite in2="blur-2" operator="in"/>
      <feComposite in="SourceGraphic"/>
    </filter>
    <filter id="drop-shadow-3" filterUnits="userSpaceOnUse">
      <feOffset dx="4" dy="2"/>
      <feGaussianBlur result="blur-3" stdDeviation="0"/>
      <feFlood flood-color="#acffac" flood-opacity="1"/>
      <feComposite in2="blur-3" operator="in"/>
      <feComposite in="SourceGraphic"/>
    </filter>
  </defs>
  <g class="cls-8">
    <g id="Calque_1" data-name="Calque 1">
      <path class="cls-2" d="M61.5,53.19s-1.38-6.19,18.92-9.63,25.8-6.19,25.8-6.19c0,0,12.73-4.47,28.21-15.83,15.48-11.35,23.05-13.76,23.05-13.76,0,0,53.67-27.52,85.32,22.71,3.44,6.19,14.45,17.2,17.2,73.62,.69,7.91,9.29,46.45,0,90.83-1.72,10.67-11.7,70.53-26.49,104.93-.3,1.05-1.51,1.18-2.78,1-1.8-.25-3.5,.89-3.78,2.69-.73,4.7-2.92,13.31-9.56,22.39-.67,.92-1.26,1.92-1.67,2.99-2.36,6.23-6.24,15.01-10.94,13.33-.61-.22-1.29-.08-1.79,.33-3.67,3.01-8.27,6.76-11.12,6.12-3.1-1.72-3.61-9.63-3.44-20.3-4.82,10.32-37.84,96.67-41.63,103.21-2.75,6.88-7.22,24.77-16.51,17.89-3.44-5.85-2.75-12.04-2.75-12.04,0,0-13.76,12.04-15.14-9.63-.33-3.29-.03-34.82,11.09-51.13,1.1-1.62,1.9-3.42,2.4-5.32,2.18-8.35,7.16-24.06,7.16-24.06,0,0,9.06-24.06,10.21-44.48,.11-1.96-.64-3.85-1.99-5.27-11.45-11.95-32.88-29.22-31.27-63.78,.68-12.95-16.86-82.25,28.26-143.07,.78-1.05,1.09-2.39,.75-3.65-2.57-9.44-2.07-23.31-28.74-31.18-1.66-.49-3.38-.72-5.11-.76-6.35-.13-18.11,.07-30.7-1.19-2.63-.27-6.96-.58-9.61-.63-1.93-.03-3.36-.14-3.36-.14Z"/>
      <path class="cls-4" d="M182.8,429.53l-38.56-96.64s-28.05-54.96-38.02-73.92c-1.56-2.96-2.92-6-4.16-9.1-6-15.02-40.48-77.28-50.17-93.66-1.03-1.74-1.74-3.68-1.69-5.7,.17-6.8-7.86-15.24-11.28-18.52-1.04-1-1.88-2.14-2.52-3.43-4.97-10.02-26.64-53.71-28.92-57.82-6.19-1.55-7.22,3.61-7.22,3.61,0,0,21.19,47.67,28.21,61.61,.44,.88,1.04,1.68,1.74,2.38,8.63,8.62,10.11,13.46,10.17,16.51,.04,2.29,.8,4.52,2.27,6.29,4.66,5.61,11.8,23.65,11.8,23.65,0,0,42.32,81.54,58.31,110.95l62.5,136.83c.65,1.42,2.27,2.12,3.75,1.61l1.95-.67c1.64-.56,2.48-2.38,1.83-3.99Z"/>
      <g>
        <g class="cls-10">
          <path class="cls-12" d="M140.72,246.75l-34.4-9.63s-6.54-1.72-14.11,7.57c-3.1,1.72-5.16,.05-5.68-2.82-2.06-.28-11.53,3.68-11.53,3.68,0,0-10.67,3.96-6.36-6.71-2.06-1.55-8.6-6.19,8.26-14.79-1.89-1.2-8.77-2.41,.17-9.46,3.38-2.01,5.82-3.53,7.46-4.59,2.08-1.33,4.52-1.95,6.98-1.71,3.62,.35,7.93,1.63,6.03,5.96,3.44,0,9.46-.86,6.71,6.71,1.2,1.38,2.06,2.75,1.89,4.3,1.72,.17,34.58,14.28,34.58,14.28v7.22Z"/>
          <path class="cls-5" d="M140.72,246.75l-34.4-9.63s-6.54-1.72-14.11,7.57c-3.1,1.72-5.16,.05-5.68-2.82-2.06-.28-11.53,3.68-11.53,3.68,0,0-10.67,3.96-6.36-6.71-2.06-1.55-8.6-6.19,8.26-14.79-1.89-1.2-8.77-2.41,.17-9.46,3.38-2.01,5.82-3.53,7.46-4.59,2.08-1.33,4.52-1.95,6.98-1.71,3.62,.35,7.93,1.63,6.03,5.96,3.44,0,9.46-.86,6.71,6.71,1.2,1.38,2.06,2.75,1.89,4.3,1.72,.17,34.58,14.28,34.58,14.28v7.22Z"/>
          <path class="cls-12" d="M136.72,244.75l-34.4-9.63s-6.54-1.72-14.11,7.57c-3.1,1.72-5.16,.05-5.68-2.82-2.06-.28-11.53,3.68-11.53,3.68,0,0-10.67,3.96-6.36-6.71-2.06-1.55-8.6-6.19,8.26-14.79-1.89-1.2-8.77-2.41,.17-9.46,3.38-2.01,5.82-3.53,7.46-4.59,2.08-1.33,4.52-1.95,6.98-1.71,3.62,.35,7.93,1.63,6.03,5.96,3.44,0,9.46-.86,6.71,6.71,1.2,1.38,2.06,2.75,1.89,4.3,1.72,.17,34.58,14.28,34.58,14.28v7.22Z"/>
          <path class="cls-5" d="M136.72,244.75l-34.4-9.63s-6.54-1.72-14.11,7.57c-3.1,1.72-5.16,.05-5.68-2.82-2.06-.28-11.53,3.68-11.53,3.68,0,0-10.67,3.96-6.36-6.71-2.06-1.55-8.6-6.19,8.26-14.79-1.89-1.2-8.77-2.41,.17-9.46,3.38-2.01,5.82-3.53,7.46-4.59,2.08-1.33,4.52-1.95,6.98-1.71,3.62,.35,7.93,1.63,6.03,5.96,3.44,0,9.46-.86,6.71,6.71,1.2,1.38,2.06,2.75,1.89,4.3,1.72,.17,34.58,14.28,34.58,14.28v7.22Z"/>
          <path class="cls-12" d="M136.72,244.75l-34.4-9.63s-6.54-1.72-14.11,7.57c-3.1,1.72-5.16,.05-5.68-2.82-2.06-.28-11.53,3.68-11.53,3.68,0,0-10.67,3.96-6.36-6.71-2.06-1.55-8.6-6.19,8.26-14.79-1.89-1.2-8.77-2.41,.17-9.46,3.38-2.01,5.82-3.53,7.46-4.59,2.08-1.33,4.52-1.95,6.98-1.71,3.62,.35,7.93,1.63,6.03,5.96,3.44,0,9.46-.86,6.71,6.71,1.2,1.38,2.06,2.75,1.89,4.3,1.72,.17,34.58,14.28,34.58,14.28v7.22Z"/>
          <path class="cls-5" d="M136.72,244.75l-34.4-9.63s-6.54-1.72-14.11,7.57c-3.1,1.72-5.16,.05-5.68-2.82-2.06-.28-11.53,3.68-11.53,3.68,0,0-10.67,3.96-6.36-6.71-2.06-1.55-8.6-6.19,8.26-14.79-1.89-1.2-8.77-2.41,.17-9.46,3.38-2.01,5.82-3.53,7.46-4.59,2.08-1.33,4.52-1.95,6.98-1.71,3.62,.35,7.93,1.63,6.03,5.96,3.44,0,9.46-.86,6.71,6.71,1.2,1.38,2.06,2.75,1.89,4.3,1.72,.17,34.58,14.28,34.58,14.28v7.22Z"/>
          <path class="cls-12" d="M132.72,242.75l-34.4-9.63s-6.54-1.72-14.11,7.57c-3.1,1.72-5.16,.05-5.68-2.82-2.06-.28-11.53,3.68-11.53,3.68,0,0-10.67,3.96-6.36-6.71-2.06-1.55-8.6-6.19,8.26-14.79-1.89-1.2-8.77-2.41,.17-9.46,3.38-2.01,5.82-3.53,7.46-4.59,2.08-1.33,4.52-1.95,6.98-1.71,3.62,.35,7.93,1.63,6.03,5.96,3.44,0,9.46-.86,6.71,6.71,1.2,1.38,2.06,2.75,1.89,4.3,1.72,.17,34.58,14.28,34.58,14.28v7.22Z"/>
          <path class="cls-5" d="M132.72,242.75l-34.4-9.63s-6.54-1.72-14.11,7.57c-3.1,1.72-5.16,.05-5.68-2.82-2.06-.28-11.53,3.68-11.53,3.68,0,0-10.67,3.96-6.36-6.71-2.06-1.55-8.6-6.19,8.26-14.79-1.89-1.2-8.77-2.41,.17-9.46,3.38-2.01,5.82-3.53,7.46-4.59,2.08-1.33,4.52-1.95,6.98-1.71,3.62,.35,7.93,1.63,6.03,5.96,3.44,0,9.46-.86,6.71,6.71,1.2,1.38,2.06,2.75,1.89,4.3,1.72,.17,34.58,14.28,34.58,14.28v7.22Z"/>
        </g>
        <g>
          <g class="cls-10">
            <path class="cls-12" d="M140.72,246.75l-34.4-9.63s-6.54-1.72-14.11,7.57c-3.1,1.72-5.16,.05-5.68-2.82-2.06-.28-11.53,3.68-11.53,3.68,0,0-10.67,3.96-6.36-6.71-2.06-1.55-8.6-6.19,8.26-14.79-1.89-1.2-8.77-2.41,.17-9.46,3.38-2.01,5.82-3.53,7.46-4.59,2.08-1.33,4.52-1.95,6.98-1.71,3.62,.35,7.93,1.63,6.03,5.96,3.44,0,9.46-.86,6.71,6.71,1.2,1.38,2.06,2.75,1.89,4.3,1.72,.17,34.58,14.28,34.58,14.28v7.22Z"/>
            <path class="cls-5" d="M140.72,246.75l-34.4-9.63s-6.54-1.72-14.11,7.57c-3.1,1.72-5.16,.05-5.68-2.82-2.06-.28-11.53,3.68-11.53,3.68,0,0-10.67,3.96-6.36-6.71-2.06-1.55-8.6-6.19,8.26-14.79-1.89-1.2-8.77-2.41,.17-9.46,3.38-2.01,5.82-3.53,7.46-4.59,2.08-1.33,4.52-1.95,6.98-1.71,3.62,.35,7.93,1.63,6.03,5.96,3.44,0,9.46-.86,6.71,6.71,1.2,1.38,2.06,2.75,1.89,4.3,1.72,.17,34.58,14.28,34.58,14.28v7.22Z"/>
            <path class="cls-12" d="M136.72,244.75l-34.4-9.63s-6.54-1.72-14.11,7.57c-3.1,1.72-5.16,.05-5.68-2.82-2.06-.28-11.53,3.68-11.53,3.68,0,0-10.67,3.96-6.36-6.71-2.06-1.55-8.6-6.19,8.26-14.79-1.89-1.2-8.77-2.41,.17-9.46,3.38-2.01,5.82-3.53,7.46-4.59,2.08-1.33,4.52-1.95,6.98-1.71,3.62,.35,7.93,1.63,6.03,5.96,3.44,0,9.46-.86,6.71,6.71,1.2,1.38,2.06,2.75,1.89,4.3,1.72,.17,34.58,14.28,34.58,14.28v7.22Z"/>
            <path class="cls-5" d="M136.72,244.75l-34.4-9.63s-6.54-1.72-14.11,7.57c-3.1,1.72-5.16,.05-5.68-2.82-2.06-.28-11.53,3.68-11.53,3.68,0,0-10.67,3.96-6.36-6.71-2.06-1.55-8.6-6.19,8.26-14.79-1.89-1.2-8.77-2.41,.17-9.46,3.38-2.01,5.82-3.53,7.46-4.59,2.08-1.33,4.52-1.95,6.98-1.71,3.62,.35,7.93,1.63,6.03,5.96,3.44,0,9.46-.86,6.71,6.71,1.2,1.38,2.06,2.75,1.89,4.3,1.72,.17,34.58,14.28,34.58,14.28v7.22Z"/>
          </g>
          <g>
            <g class="cls-11">
              <path class="cls-12" d="M136.72,244.75l-34.4-9.63s-6.54-1.72-14.11,7.57c-3.1,1.72-5.16,.05-5.68-2.82-2.06-.28-11.53,3.68-11.53,3.68,0,0-10.67,3.96-6.36-6.71-2.06-1.55-8.6-6.19,8.26-14.79-1.89-1.2-8.77-2.41,.17-9.46,3.38-2.01,5.82-3.53,7.46-4.59,2.08-1.33,4.52-1.95,6.98-1.71,3.62,.35,7.93,1.63,6.03,5.96,3.44,0,9.46-.86,6.71,6.71,1.2,1.38,2.06,2.75,1.89,4.3,1.72,.17,34.58,14.28,34.58,14.28v7.22Z"/>
              <path class="cls-5" d="M136.72,244.75l-34.4-9.63s-6.54-1.72-14.11,7.57c-3.1,1.72-5.16,.05-5.68-2.82-2.06-.28-11.53,3.68-11.53,3.68,0,0-10.67,3.96-6.36-6.71-2.06-1.55-8.6-6.19,8.26-14.79-1.89-1.2-8.77-2.41,.17-9.46,3.38-2.01,5.82-3.53,7.46-4.59,2.08-1.33,4.52-1.95,6.98-1.71,3.62,.35,7.93,1.63,6.03,5.96,3.44,0,9.46-.86,6.71,6.71,1.2,1.38,2.06,2.75,1.89,4.3,1.72,.17,34.58,14.28,34.58,14.28v7.22Z"/>
            </g>
            <g>
              <path class="cls-9" d="M132.72,242.75l-34.4-9.63s-6.54-1.72-14.11,7.57c-3.1,1.72-5.16,.05-5.68-2.82-2.06-.28-11.53,3.68-11.53,3.68,0,0-10.67,3.96-6.36-6.71-2.06-1.55-8.6-6.19,8.26-14.79-1.89-1.2-8.77-2.41,.17-9.46,3.38-2.01,5.82-3.53,7.46-4.59,2.08-1.33,4.52-1.95,6.98-1.71,3.62,.35,7.93,1.63,6.03,5.96,3.44,0,9.46-.86,6.71,6.71,1.2,1.38,2.06,2.75,1.89,4.3,1.72,.17,34.58,14.28,34.58,14.28v7.22Z"/>
              <path class="cls-1" d="M132.72,242.75l-34.4-9.63s-6.54-1.72-14.11,7.57c-3.1,1.72-5.16,.05-5.68-2.82-2.06-.28-11.53,3.68-11.53,3.68,0,0-10.67,3.96-6.36-6.71-2.06-1.55-8.6-6.19,8.26-14.79-1.89-1.2-8.77-2.41,.17-9.46,3.38-2.01,5.82-3.53,7.46-4.59,2.08-1.33,4.52-1.95,6.98-1.71,3.62,.35,7.93,1.63,6.03,5.96,3.44,0,9.46-.86,6.71,6.71,1.2,1.38,2.06,2.75,1.89,4.3,1.72,.17,34.58,14.28,34.58,14.28v7.22Z"/>
            </g>
          </g>
        </g>
      </g>
      <g>
        <g class="cls-10">
          <path class="cls-12" d="M164.07,40.26c1.36-3.13,10-14,22.48-7.56,.31,.16,.58,.45,.67,.79,.87,3.41-1.36,8.91-6.34,11.96-5.11,3.13-14.07,1.54-16.79-3.72-.24-.45-.23-1-.02-1.47Z"/>
          <path class="cls-5" d="M164.07,40.26c1.36-3.13,10-14,22.48-7.56,.31,.16,.58,.45,.67,.79,.87,3.41-1.36,8.91-6.34,11.96-5.11,3.13-14.07,1.54-16.79-3.72-.24-.45-.23-1-.02-1.47Z"/>
          <path class="cls-12" d="M160.07,38.26c1.36-3.13,10-14,22.48-7.56,.31,.16,.58,.45,.67,.79,.87,3.41-1.36,8.91-6.34,11.96-5.11,3.13-14.07,1.54-16.79-3.72-.24-.45-.23-1-.02-1.47Z"/>
          <path class="cls-5" d="M160.07,38.26c1.36-3.13,10-14,22.48-7.56,.31,.16,.58,.45,.67,.79,.87,3.41-1.36,8.91-6.34,11.96-5.11,3.13-14.07,1.54-16.79-3.72-.24-.45-.23-1-.02-1.47Z"/>
          <path class="cls-12" d="M160.07,38.26c1.36-3.13,10-14,22.48-7.56,.31,.16,.58,.45,.67,.79,.87,3.41-1.36,8.91-6.34,11.96-5.11,3.13-14.07,1.54-16.79-3.72-.24-.45-.23-1-.02-1.47Z"/>
          <path class="cls-5" d="M160.07,38.26c1.36-3.13,10-14,22.48-7.56,.31,.16,.58,.45,.67,.79,.87,3.41-1.36,8.91-6.34,11.96-5.11,3.13-14.07,1.54-16.79-3.72-.24-.45-.23-1-.02-1.47Z"/>
          <path class="cls-12" d="M156.07,36.26c1.36-3.13,10-14,22.48-7.56,.31,.16,.58,.45,.67,.79,.87,3.41-1.36,8.91-6.34,11.96-5.11,3.13-14.07,1.54-16.79-3.72-.24-.45-.23-1-.02-1.47Z"/>
          <path class="cls-5" d="M156.07,36.26c1.36-3.13,10-14,22.48-7.56,.31,.16,.58,.45,.67,.79,.87,3.41-1.36,8.91-6.34,11.96-5.11,3.13-14.07,1.54-16.79-3.72-.24-.45-.23-1-.02-1.47Z"/>
        </g>
        <g>
          <g class="cls-10">
            <path class="cls-12" d="M164.07,40.26c1.36-3.13,10-14,22.48-7.56,.31,.16,.58,.45,.67,.79,.87,3.41-1.36,8.91-6.34,11.96-5.11,3.13-14.07,1.54-16.79-3.72-.24-.45-.23-1-.02-1.47Z"/>
            <path class="cls-5" d="M164.07,40.26c1.36-3.13,10-14,22.48-7.56,.31,.16,.58,.45,.67,.79,.87,3.41-1.36,8.91-6.34,11.96-5.11,3.13-14.07,1.54-16.79-3.72-.24-.45-.23-1-.02-1.47Z"/>
            <path class="cls-12" d="M160.07,38.26c1.36-3.13,10-14,22.48-7.56,.31,.16,.58,.45,.67,.79,.87,3.41-1.36,8.91-6.34,11.96-5.11,3.13-14.07,1.54-16.79-3.72-.24-.45-.23-1-.02-1.47Z"/>
            <path class="cls-5" d="M160.07,38.26c1.36-3.13,10-14,22.48-7.56,.31,.16,.58,.45,.67,.79,.87,3.41-1.36,8.91-6.34,11.96-5.11,3.13-14.07,1.54-16.79-3.72-.24-.45-.23-1-.02-1.47Z"/>
          </g>
          <g>
            <g class="cls-11">
              <path class="cls-12" d="M160.07,38.26c1.36-3.13,10-14,22.48-7.56,.31,.16,.58,.45,.67,.79,.87,3.41-1.36,8.91-6.34,11.96-5.11,3.13-14.07,1.54-16.79-3.72-.24-.45-.23-1-.02-1.47Z"/>
              <path class="cls-5" d="M160.07,38.26c1.36-3.13,10-14,22.48-7.56,.31,.16,.58,.45,.67,.79,.87,3.41-1.36,8.91-6.34,11.96-5.11,3.13-14.07,1.54-16.79-3.72-.24-.45-.23-1-.02-1.47Z"/>
            </g>
            <g>
              <path class="cls-7" d="M156.07,36.26c1.36-3.13,10-14,22.48-7.56,.31,.16,.58,.45,.67,.79,.87,3.41-1.36,8.91-6.34,11.96-5.11,3.13-14.07,1.54-16.79-3.72-.24-.45-.23-1-.02-1.47Z"/>
              <path class="cls-3" d="M156.07,36.26c1.36-3.13,10-14,22.48-7.56,.31,.16,.58,.45,.67,.79,.87,3.41-1.36,8.91-6.34,11.96-5.11,3.13-14.07,1.54-16.79-3.72-.24-.45-.23-1-.02-1.47Z"/>
            </g>
          </g>
        </g>
      </g>
      <path class="cls-6" d="M102.44,43.04"/>
    </g>
  </g>
</svg>